<?xml version="1.0" encoding="utf-8"?>
<!-- Generator: Adobe Illustrator 21.0.2, SVG Export Plug-In . SVG Version: 6.00 Build 0)  -->
<svg version="1.1" id="Layer_1" xmlns="http://www.w3.org/2000/svg" xmlns:xlink="http://www.w3.org/1999/xlink" x="0px" y="0px"
	 viewBox="0 0 144 140" style="enable-background:new 0 0 144 140;" xml:space="preserve">
<style type="text/css">
	.st0{clip-path:url(#SVGID_2_);enable-background:new    ;}
	.st1{clip-path:url(#SVGID_4_);fill-rule:evenodd;clip-rule:evenodd;fill:#FDB000;}
	.st2{clip-path:url(#SVGID_4_);fill-rule:evenodd;clip-rule:evenodd;fill:#5DC3DE;}
	.st3{clip-path:url(#SVGID_4_);fill-rule:evenodd;clip-rule:evenodd;fill:#D71814;}
	.st4{clip-path:url(#SVGID_4_);fill-rule:evenodd;clip-rule:evenodd;fill:#CC1218;}
	.st5{clip-path:url(#SVGID_4_);fill-rule:evenodd;clip-rule:evenodd;fill:#6DA810;}
	.st6{clip-path:url(#SVGID_4_);fill-rule:evenodd;clip-rule:evenodd;fill:#F0A223;}
	.st7{clip-path:url(#SVGID_4_);fill-rule:evenodd;clip-rule:evenodd;fill:#D5101C;}
	.st8{clip-path:url(#SVGID_4_);fill-rule:evenodd;clip-rule:evenodd;fill:#12476C;}
	.st9{clip-path:url(#SVGID_4_);fill-rule:evenodd;clip-rule:evenodd;fill:#76B900;}
	.st10{clip-path:url(#SVGID_4_);fill-rule:evenodd;clip-rule:evenodd;fill:#0C9DCE;}
	.st11{clip-path:url(#SVGID_4_);fill-rule:evenodd;clip-rule:evenodd;fill:#4E7E32;}
	.st12{clip-path:url(#SVGID_4_);fill-rule:evenodd;clip-rule:evenodd;fill:#D3821D;}
	.st13{clip-path:url(#SVGID_4_);fill-rule:evenodd;clip-rule:evenodd;fill:#F78713;}
	.st14{clip-path:url(#SVGID_4_);fill-rule:evenodd;clip-rule:evenodd;fill:#DA0044;}
	.st15{clip-path:url(#SVGID_4_);fill-rule:evenodd;clip-rule:evenodd;fill:#E83F0C;}
	.st16{clip-path:url(#SVGID_4_);fill-rule:evenodd;clip-rule:evenodd;fill:#B11523;}
	.st17{clip-path:url(#SVGID_4_);}
	.st18{fill:#0058A3;}
	.st19{clip-path:url(#SVGID_6_);enable-background:new    ;}
	.st20{clip-path:url(#SVGID_8_);fill:#6BB600;}
	.st21{clip-path:url(#SVGID_8_);fill:#E7A712;}
	.st22{clip-path:url(#SVGID_8_);fill:#B1111B;}
	.st23{clip-path:url(#SVGID_8_);fill:#4D960C;}
	.st24{clip-path:url(#SVGID_8_);fill:#3E712B;}
	.st25{clip-path:url(#SVGID_8_);fill:#FEB500;}
	.st26{clip-path:url(#SVGID_8_);fill:#DD2415;}
	.st27{clip-path:url(#SVGID_8_);fill:#FA8C06;}
	.st28{clip-path:url(#SVGID_8_);fill:#2C8CC6;}
	.st29{clip-path:url(#SVGID_8_);fill:#920A2D;}
	.st30{clip-path:url(#SVGID_8_);fill:#4FB9DB;}
	.st31{clip-path:url(#SVGID_8_);fill:#EC4C11;}
	.st32{clip-path:url(#SVGID_8_);fill:#D50D23;}
	.st33{clip-path:url(#SVGID_8_);fill:#CF004E;}
	.st34{clip-path:url(#SVGID_8_);fill:#103353;}
	.st35{clip-path:url(#SVGID_8_);fill:#C4850A;}
	.st36{clip-path:url(#SVGID_8_);fill:#00558C;}
</style>
<g>
	<defs>
		<rect id="SVGID_1_" width="144" height="140"/>
	</defs>
	<clipPath id="SVGID_2_">
		<use xlink:href="#SVGID_1_"  style="overflow:visible;"/>
	</clipPath>
	<g class="st0">
		<g>
			<defs>
				<rect id="SVGID_3_" width="144" height="140"/>
			</defs>
			<clipPath id="SVGID_4_">
				<use xlink:href="#SVGID_3_"  style="overflow:visible;"/>
			</clipPath>
			<path class="st1" d="M49.4,11.4c0,0,4.6,38.1,52.8,39.4c0,0,0,0,0,0c-41.6,0.8-52-27.3-54.1-35C48.4,14,48.9,12.5,49.4,11.4"/>
			<path class="st2" d="M47.6,13.9c0,0,6.4,37.8,54.6,36.9c0,0,0,0,0,0c-40.9,3-53-23.7-55.8-31.7C46.6,17,47.1,15.2,47.6,13.9"/>
			<path class="st3" d="M45.7,16.9c0,0,8.4,37.4,56.4,33.9c0,0,0,0,0,0c-41.2,5-54.5-21.9-57.3-29.4C45,19.6,45.3,18,45.7,16.9"/>
			<path class="st4" d="M44.2,19.6c0,0,10.2,37,58,31.2h0c-41.1,6.9-55.5-19.5-58.6-26.7C43.6,22.3,43.9,20.7,44.2,19.6"/>
			<path class="st5" d="M90.2,11.1c0,0-4.6,38.1-52.8,39.4l0,0c41.6,0.8,52-27.3,54.1-35C91.2,13.8,90.7,12.3,90.2,11.1"/>
			<path class="st6" d="M92,13.7c0,0-6.4,37.8-54.6,36.9c0,0,0,0,0,0c40.9,3,53-23.7,55.8-31.7C93,16.7,92.5,15,92,13.7"/>
			<path class="st7" d="M93.9,16.6c0,0-8.4,37.4-56.4,33.9c0,0,0,0,0,0c41.2,5,54.5-21.9,57.3-29.4C94.6,19.4,94.3,17.8,93.9,16.6"
				/>
			<path class="st8" d="M95.4,19.3c0,0-10.2,37-58,31.2h0C78.5,57.4,93,31.1,96.1,23.8C96,22,95.8,20.5,95.4,19.3"/>
			<path class="st9" d="M98,90c0,0-4.2-34.2-47.4-35.4c0,0,0,0,0,0C87.9,53.9,97.3,79.1,99.2,86C98.8,87.6,98.4,89,98,90"/>
			<path class="st10" d="M99.6,87.8c0,0-5.7-34-49-33.1c0,0,0,0,0,0c36.7-2.7,47.6,21.3,50.1,28.5C100.4,85,100,86.6,99.6,87.8"/>
			<path class="st11" d="M101.3,85.1c0,0-7.5-33.6-50.7-30.5l0,0c37-4.5,48.9,19.7,51.5,26.4C101.9,82.6,101.6,84,101.3,85.1"/>
			<path class="st12" d="M102.7,82.7c0,0-9.1-33.2-52.1-28.1h0c36.9-6.2,49.8,17.5,52.7,24C103.2,80.2,102.9,81.6,102.7,82.7"/>
			<path class="st13" d="M41.6,89.9c0,0,4.2-34.2,47.4-35.4c0,0,0,0,0,0C51.7,53.8,42.3,79,40.4,85.9C40.8,87.5,41.2,88.9,41.6,89.9
				"/>
			<path class="st14" d="M40,87.6c0,0,5.7-34,49-33.1c0,0,0,0,0,0C52.3,51.8,41.4,75.8,38.9,83C39.2,84.9,39.6,86.5,40,87.6"/>
			<path class="st15" d="M38.3,85c0,0,7.5-33.6,50.7-30.5l0,0C52,50,40.1,74.1,37.6,80.8C37.7,82.5,38,83.9,38.3,85"/>
			<path class="st16" d="M37,82.5c0,0,9.1-33.2,52.1-28.1l0,0c-36.9-6.2-49.8,17.5-52.7,24C36.5,80.1,36.7,81.5,37,82.5"/>
			<g class="st17">
				<path class="st18" d="M8.8,102.7l-3.7,7.1v4.1H3.8v-4.1l-3.6-7.1h1.5l2.5,5.1c0,0.1,0.1,0.3,0.3,0.7h0c0.1-0.2,0.2-0.4,0.3-0.7
					l2.6-5.1H8.8z"/>
			</g>
			<g class="st17">
				<path class="st18" d="M14.9,114.1c-1.6,0-2.9-0.5-3.8-1.6c-1-1-1.4-2.4-1.4-4.1c0-1.8,0.5-3.2,1.5-4.3c1-1.1,2.3-1.6,4-1.6
					c1.5,0,2.8,0.5,3.7,1.6s1.4,2.4,1.4,4.1c0,1.8-0.5,3.3-1.5,4.3S16.6,114.1,14.9,114.1z M15,103.7c-1.2,0-2.1,0.4-2.9,1.3
					s-1.1,2-1.1,3.3s0.4,2.5,1.1,3.3c0.7,0.8,1.6,1.3,2.8,1.3c1.2,0,2.2-0.4,2.9-1.2c0.7-0.8,1.1-1.9,1.1-3.4c0-1.5-0.3-2.6-1-3.4
					S16.2,103.7,15,103.7z"/>
				<path class="st18" d="M30.7,109.4c0,3.1-1.4,4.7-4.3,4.7c-2.7,0-4.1-1.5-4.1-4.5v-6.9h1.3v6.8c0,2.3,1,3.4,2.9,3.4
					c1.9,0,2.8-1.1,2.8-3.3v-6.9h1.3V109.4z"/>
				<path class="st18" d="M40.1,103.9h-3.2v10h-1.3v-10h-3.2v-1.2h7.8V103.9z"/>
				<path class="st18" d="M50.3,113.9H49v-5.1h-5.8v5.1h-1.3v-11.2h1.3v4.9H49v-4.9h1.3V113.9z"/>
				<path class="st18" d="M63.4,113.9h-5.8v-11.2h1.3v10h4.5V113.9z"/>
				<path class="st18" d="M71.1,113.9h-5.9v-11.2h5.7v1.2h-4.4v3.7h4v1.2h-4v3.9h4.6V113.9z"/>
				<path class="st18" d="M81.9,113.9h-1.5l-1.2-3.1h-4.8l-1.1,3.1h-1.5l4.3-11.2h1.4L81.9,113.9z M78.8,109.6l-1.8-4.8
					c-0.1-0.2-0.1-0.4-0.2-0.8h0c-0.1,0.3-0.1,0.6-0.2,0.8l-1.7,4.8H78.8z"/>
				<path class="st18" d="M83.5,113.9v-11.2h3.1c3.9,0,5.9,1.8,5.9,5.5c0,1.7-0.5,3.1-1.6,4.2c-1.1,1-2.6,1.6-4.4,1.6H83.5z
					 M84.8,103.9v8.8h1.7c1.5,0,2.6-0.4,3.4-1.2c0.8-0.8,1.2-1.9,1.2-3.3c0-2.9-1.5-4.3-4.6-4.3H84.8z"/>
				<path class="st18" d="M100.7,113.9h-5.9v-11.2h5.7v1.2h-4.4v3.7h4v1.2h-4v3.9h4.6V113.9z"/>
				<path class="st18" d="M110.9,113.9h-1.6l-1.9-3.1c-0.2-0.3-0.3-0.5-0.5-0.7c-0.2-0.2-0.3-0.4-0.5-0.5c-0.2-0.1-0.4-0.2-0.5-0.3
					s-0.4-0.1-0.7-0.1h-1.1v4.8h-1.3v-11.2h3.3c0.5,0,0.9,0.1,1.4,0.2s0.8,0.3,1.1,0.6s0.5,0.6,0.7,0.9s0.3,0.8,0.3,1.3
					c0,0.4-0.1,0.7-0.2,1.1s-0.3,0.6-0.5,0.9c-0.2,0.3-0.5,0.5-0.8,0.7s-0.6,0.3-1,0.4v0c0.2,0.1,0.4,0.2,0.5,0.3
					c0.1,0.1,0.3,0.2,0.4,0.4s0.2,0.3,0.4,0.5c0.1,0.2,0.3,0.4,0.4,0.6L110.9,113.9z M104.2,103.9v4.1h1.8c0.3,0,0.6,0,0.9-0.1
					c0.3-0.1,0.5-0.2,0.7-0.4s0.4-0.4,0.5-0.7c0.1-0.3,0.2-0.6,0.2-0.9c0-0.6-0.2-1.1-0.6-1.4c-0.4-0.3-0.9-0.5-1.7-0.5H104.2z"/>
				<path class="st18" d="M111.9,113.4v-1.5c0.2,0.2,0.4,0.3,0.6,0.4c0.2,0.1,0.5,0.2,0.8,0.3s0.5,0.2,0.8,0.2
					c0.3,0,0.5,0.1,0.8,0.1c0.8,0,1.4-0.1,1.8-0.4s0.6-0.7,0.6-1.3c0-0.3-0.1-0.6-0.2-0.8s-0.3-0.4-0.6-0.6s-0.5-0.4-0.8-0.5
					s-0.7-0.3-1-0.5c-0.4-0.2-0.8-0.4-1.1-0.6c-0.3-0.2-0.6-0.4-0.9-0.7s-0.4-0.5-0.6-0.8c-0.1-0.3-0.2-0.7-0.2-1.1
					c0-0.5,0.1-1,0.3-1.3c0.2-0.4,0.5-0.7,0.9-0.9c0.4-0.2,0.8-0.4,1.2-0.5c0.5-0.1,0.9-0.2,1.4-0.2c1.1,0,1.9,0.1,2.4,0.4v1.5
					c-0.7-0.5-1.5-0.7-2.5-0.7c-0.3,0-0.6,0-0.9,0.1c-0.3,0.1-0.5,0.2-0.8,0.3c-0.2,0.1-0.4,0.3-0.5,0.5s-0.2,0.5-0.2,0.8
					c0,0.3,0.1,0.5,0.2,0.7c0.1,0.2,0.3,0.4,0.5,0.6c0.2,0.2,0.5,0.3,0.8,0.5c0.3,0.2,0.6,0.3,1,0.5c0.4,0.2,0.8,0.4,1.1,0.6
					s0.7,0.5,0.9,0.7c0.3,0.3,0.5,0.6,0.6,0.9c0.2,0.3,0.2,0.7,0.2,1.1c0,0.6-0.1,1-0.3,1.4c-0.2,0.4-0.5,0.7-0.9,0.9
					s-0.8,0.4-1.3,0.5c-0.5,0.1-1,0.2-1.5,0.2c-0.2,0-0.4,0-0.7,0c-0.3,0-0.5-0.1-0.8-0.1c-0.3-0.1-0.5-0.1-0.8-0.2
					S112,113.5,111.9,113.4z"/>
				<path class="st18" d="M129.3,113.9H128v-5.1h-5.8v5.1h-1.3v-11.2h1.3v4.9h5.8v-4.9h1.3V113.9z"/>
				<path class="st18" d="M133.6,113.9h-1.3v-11.2h1.3V113.9z"/>
				<path class="st18" d="M137.8,109.7v4.2h-1.3v-11.2h3.1c1.2,0,2.1,0.3,2.8,0.9c0.7,0.6,1,1.4,1,2.5s-0.4,1.9-1.1,2.6
					c-0.7,0.7-1.7,1-3,1H137.8z M137.8,103.9v4.6h1.4c0.9,0,1.6-0.2,2.1-0.6s0.7-1,0.7-1.8c0-1.5-0.9-2.2-2.6-2.2H137.8z"/>
			</g>
		</g>
	</g>
</g>
<g>
	<defs>
		<rect id="SVGID_5_" width="144" height="140"/>
	</defs>
	<clipPath id="SVGID_6_">
		<use xlink:href="#SVGID_5_"  style="overflow:visible;"/>
	</clipPath>
	<g class="st19">
		<g>
			<defs>
				<rect id="SVGID_7_" width="144" height="140"/>
			</defs>
			<clipPath id="SVGID_8_">
				<use xlink:href="#SVGID_7_"  style="overflow:visible;"/>
			</clipPath>
			<path class="st20" d="M66.6,12.1c0.3-0.4,0.6-0.8,0.9-1.2l-3.1-3.3c-0.8,0.7-1.4,1.6-2,2.5L66.6,12.1z"/>
			<path class="st21" d="M74.1,9.7c0.5,0.2,0.9,0.5,1.3,0.8l3.1-3.3c-0.8-0.7-1.7-1.2-2.7-1.7L74.1,9.7z"/>
			<path class="st22" d="M81.2,10.7l-4.1,2c0.2,0.4,0.3,0.9,0.4,1.4l4.6-0.4C81.9,12.7,81.6,11.7,81.2,10.7"/>
			<path class="st23" d="M76.8,12.1l4.1-2c-0.5-0.9-1.2-1.7-1.9-2.5L75.9,11C76.3,11.3,76.6,11.7,76.8,12.1"/>
			<path class="st24" d="M65.8,15c0-0.1,0-0.2,0-0.3l-4.6-0.4c0,0.2,0,0.4,0,0.7c0,0.8,0.1,1.7,0.3,2.5l4.4-1.2
				C65.8,15.8,65.8,15.4,65.8,15"/>
			<path class="st25" d="M76.2,18.6c-0.3,0.4-0.7,0.7-1.1,1l2.4,3.8c0.9-0.6,1.7-1.3,2.4-2.1L76.2,18.6z"/>
			<path class="st26" d="M77.6,15c0,0.4,0,0.8-0.1,1.2l4.4,1.2c0.2-0.8,0.3-1.6,0.3-2.5c0-0.2,0-0.4,0-0.6l-4.6,0.4
				C77.6,14.8,77.6,14.9,77.6,15"/>
			<path class="st27" d="M67.2,18.7l-3.6,2.7c0.7,0.8,1.5,1.5,2.4,2.1l2.4-3.8C67.9,19.4,67.5,19.1,67.2,18.7"/>
			<path class="st28" d="M65.8,14.1c0.1-0.5,0.2-1,0.4-1.4l-4.1-2c-0.5,0.9-0.8,1.9-0.9,3L65.8,14.1z"/>
			<path class="st29" d="M77,23.8L74.6,20c-0.4,0.2-0.9,0.4-1.4,0.6l0.8,4.4C75.1,24.7,76.1,24.3,77,23.8"/>
			<path class="st30" d="M77.3,16.8c-0.2,0.5-0.4,0.9-0.6,1.3l3.7,2.7c0.6-0.8,1.1-1.8,1.4-2.7L77.3,16.8z"/>
			<path class="st31" d="M72.5,20.7c-0.3,0-0.6,0.1-0.9,0.1c-0.2,0-0.5,0-0.7,0l-0.8,4.4c0.5,0.1,1,0.1,1.5,0.1c0.6,0,1.1,0,1.7-0.1
				L72.5,20.7z"/>
			<path class="st32" d="M72,9.2c0.5,0,1,0.1,1.5,0.3l1.6-4.2c-1-0.3-2-0.5-3.1-0.6V9.2z"/>
			<path class="st33" d="M70.3,20.6c-0.5-0.1-1-0.3-1.5-0.5l-2.4,3.8c0.9,0.5,1.9,0.9,3,1.1L70.3,20.6z"/>
			<path class="st34" d="M69.9,9.5c0.5-0.1,1-0.2,1.5-0.3V4.8c-1.1,0-2.2,0.2-3.1,0.6L69.9,9.5z"/>
			<path class="st35" d="M66.8,18.2c-0.3-0.4-0.5-0.9-0.7-1.4l-4.4,1.2c0.3,1,0.8,2,1.5,2.8L66.8,18.2z"/>
			<path class="st36" d="M68,10.5c0.4-0.3,0.8-0.5,1.3-0.7l-1.7-4.1c-1,0.4-1.9,0.9-2.7,1.6L68,10.5z"/>
		</g>
	</g>
</g>
<g>
	<path class="st18" d="M25.1,128.6v4.2h-1.3v-11.2h3.1c1.2,0,2.1,0.3,2.8,0.9c0.7,0.6,1,1.4,1,2.5s-0.4,1.9-1.1,2.6
		c-0.7,0.7-1.7,1-3,1H25.1z M25.1,122.8v4.6h1.4c0.9,0,1.6-0.2,2.1-0.6s0.7-1,0.7-1.8c0-1.5-0.9-2.2-2.6-2.2H25.1z"/>
	<path class="st18" d="M40.8,132.9h-1.6l-1.9-3.1c-0.2-0.3-0.3-0.5-0.5-0.7c-0.2-0.2-0.3-0.4-0.5-0.5c-0.2-0.1-0.4-0.2-0.5-0.3
		s-0.4-0.1-0.7-0.1h-1.1v4.8h-1.3v-11.2h3.3c0.5,0,0.9,0.1,1.4,0.2s0.8,0.3,1.1,0.6s0.5,0.6,0.7,0.9s0.3,0.8,0.3,1.3
		c0,0.4-0.1,0.7-0.2,1.1s-0.3,0.6-0.5,0.9c-0.2,0.3-0.5,0.5-0.8,0.7s-0.6,0.3-1,0.4v0c0.2,0.1,0.4,0.2,0.5,0.3
		c0.1,0.1,0.3,0.2,0.4,0.4s0.2,0.3,0.4,0.5c0.1,0.2,0.3,0.4,0.4,0.6L40.8,132.9z M34.1,122.8v4.1h1.8c0.3,0,0.6,0,0.9-0.1
		c0.3-0.1,0.5-0.2,0.7-0.4s0.4-0.4,0.5-0.7c0.1-0.3,0.2-0.6,0.2-0.9c0-0.6-0.2-1.1-0.6-1.4c-0.4-0.3-0.9-0.5-1.7-0.5H34.1z"/>
</g>
<g>
	<path class="st18" d="M47.7,133c-1.6,0-2.9-0.5-3.8-1.6c-1-1-1.4-2.4-1.4-4.1c0-1.8,0.5-3.2,1.5-4.3c1-1.1,2.3-1.6,4-1.6
		c1.5,0,2.8,0.5,3.7,1.6s1.4,2.4,1.4,4.1c0,1.8-0.5,3.3-1.5,4.3S49.4,133,47.7,133z M47.8,122.7c-1.2,0-2.1,0.4-2.9,1.3
		s-1.1,2-1.1,3.3s0.4,2.5,1.1,3.3c0.7,0.8,1.6,1.3,2.8,1.3c1.2,0,2.2-0.4,2.9-1.2c0.7-0.8,1.1-1.9,1.1-3.4c0-1.5-0.3-2.6-1-3.4
		S49,122.7,47.8,122.7z"/>
	<path class="st18" d="M63.6,132.1c-1.1,0.6-2.4,1-3.8,1c-1.6,0-2.9-0.5-3.9-1.5c-1-1-1.5-2.4-1.5-4.1c0-1.7,0.5-3.2,1.6-4.3
		c1.1-1.1,2.5-1.7,4.2-1.7c1.2,0,2.2,0.2,3.1,0.6v1.5c-0.9-0.6-2-0.9-3.2-0.9c-1.3,0-2.3,0.4-3.1,1.3c-0.8,0.9-1.2,2-1.2,3.4
		c0,1.4,0.4,2.5,1.1,3.3c0.7,0.8,1.8,1.2,3,1.2c0.9,0,1.6-0.2,2.3-0.5v-3.1h-2.5V127h3.8V132.1z"/>
	<path class="st18" d="M74.3,132.9h-1.6l-1.9-3.1c-0.2-0.3-0.3-0.5-0.5-0.7c-0.2-0.2-0.3-0.4-0.5-0.5c-0.2-0.1-0.4-0.2-0.5-0.3
		s-0.4-0.1-0.7-0.1h-1.1v4.8h-1.3v-11.2h3.3c0.5,0,0.9,0.1,1.4,0.2s0.8,0.3,1.1,0.6s0.5,0.6,0.7,0.9s0.3,0.8,0.3,1.3
		c0,0.4-0.1,0.7-0.2,1.1s-0.3,0.6-0.5,0.9c-0.2,0.3-0.5,0.5-0.8,0.7s-0.6,0.3-1,0.4v0c0.2,0.1,0.4,0.2,0.5,0.3
		c0.1,0.1,0.3,0.2,0.4,0.4s0.2,0.3,0.4,0.5c0.1,0.2,0.3,0.4,0.4,0.6L74.3,132.9z M67.6,122.8v4.1h1.8c0.3,0,0.6,0,0.9-0.1
		c0.3-0.1,0.5-0.2,0.7-0.4s0.4-0.4,0.5-0.7c0.1-0.3,0.2-0.6,0.2-0.9c0-0.6-0.2-1.1-0.6-1.4c-0.4-0.3-0.9-0.5-1.7-0.5H67.6z"/>
	<path class="st18" d="M84.5,132.9H83l-1.2-3.1h-4.8l-1.1,3.1h-1.5l4.3-11.2h1.4L84.5,132.9z M81.4,128.5l-1.8-4.8
		c-0.1-0.2-0.1-0.4-0.2-0.8h0c-0.1,0.3-0.1,0.6-0.2,0.8l-1.7,4.8H81.4z"/>
	<path class="st18" d="M97.6,132.9h-1.3v-7.5c0-0.6,0-1.3,0.1-2.2h0c-0.1,0.5-0.2,0.9-0.3,1.1l-3.8,8.6h-0.6l-3.8-8.5
		c-0.1-0.3-0.2-0.6-0.3-1.1h0c0,0.4,0.1,1.2,0.1,2.2v7.5h-1.3v-11.2h1.7l3.4,7.8c0.3,0.6,0.4,1,0.5,1.3h0c0.2-0.6,0.4-1.1,0.5-1.4
		l3.5-7.8h1.6V132.9z"/>
	<path class="st18" d="M111.9,132.9h-1.3v-7.5c0-0.6,0-1.3,0.1-2.2h0c-0.1,0.5-0.2,0.9-0.3,1.1l-3.8,8.6h-0.6l-3.8-8.5
		c-0.1-0.3-0.2-0.6-0.3-1.1h0c0,0.4,0.1,1.2,0.1,2.2v7.5h-1.3v-11.2h1.7l3.4,7.8c0.3,0.6,0.4,1,0.5,1.3h0c0.2-0.6,0.4-1.1,0.5-1.4
		l3.5-7.8h1.6V132.9z"/>
	<path class="st18" d="M120.8,132.9h-5.9v-11.2h5.7v1.2h-4.4v3.7h4v1.2h-4v3.9h4.6V132.9z"/>
</g>
</svg>
